<svg width="27" height="25" viewBox="0 0 27 25" fill="none" xmlns="http://www.w3.org/2000/svg">
<path d="M24.5 6.00001H20.8017L18.6667 3.66667H10.5V6.00001H17.64L19.775 8.33334H24.5V22.3333H5.83333V10.6667H3.5V22.3333C3.5 23.6167 4.55 24.6667 5.83333 24.6667H24.5C25.7833 24.6667 26.8333 23.6167 26.8333 22.3333V8.33334C26.8333 7.05001 25.7833 6.00001 24.5 6.00001ZM9.33333 15.3333C9.33333 18.5533 11.9467 21.1667 15.1667 21.1667C18.3867 21.1667 21 18.5533 21 15.3333C21 12.1133 18.3867 9.50001 15.1667 9.50001C11.9467 9.50001 9.33333 12.1133 9.33333 15.3333ZM15.1667 11.8333C17.0917 11.8333 18.6667 13.4083 18.6667 15.3333C18.6667 17.2583 17.0917 18.8333 15.1667 18.8333C13.2417 18.8333 11.6667 17.2583 11.6667 15.3333C11.6667 13.4083 13.2417 11.8333 15.1667 11.8333ZM5.83333 9.50001V6.00001H9.33333V3.66667H5.83333V0.166672H3.5V3.66667H0V6.00001H3.5V9.50001H5.83333Z" fill="#EA3838"/>
</svg>
