<svg width="38" height="38" viewBox="0 0 38 38" fill="none" xmlns="http://www.w3.org/2000/svg">
<path d="M35.0299 30.9498C35.0308 30.9247 35.0312 30.8997 35.0312 30.875C35.0305 30.2453 34.7801 29.6416 34.3348 29.1964C33.8896 28.7512 33.2859 28.5007 32.6562 28.5V17.5156L34.7937 15.9125C34.868 15.8568 34.9281 15.7845 34.9694 15.7014C35.0106 15.6183 35.0318 15.5266 35.0312 15.4338C35.0306 15.341 35.0083 15.2496 34.966 15.167C34.9238 15.0844 34.8627 15.0129 34.7878 14.9581L29.6875 11.2309V4.75C29.8449 4.75 29.996 4.68744 30.1073 4.57609C30.2187 4.46474 30.2812 4.31372 30.2812 4.15625V1.78125C30.2812 1.62378 30.2187 1.47276 30.1073 1.36141C29.996 1.25006 29.8449 1.1875 29.6875 1.1875H23.75C23.5925 1.1875 23.4415 1.25006 23.3301 1.36141C23.2188 1.47276 23.1562 1.62378 23.1562 1.78125V4.15625C23.1562 4.31372 23.2188 4.46474 23.3301 4.57609C23.4415 4.68744 23.5925 4.75 23.75 4.75V6.89203L19.3503 3.67687C19.2486 3.60256 19.1259 3.56252 19 3.56252C18.874 3.56252 18.7514 3.60256 18.6497 3.67687L3.21218 14.9581C3.13726 15.0129 3.07621 15.0844 3.03394 15.167C2.99167 15.2496 2.96935 15.341 2.96877 15.4338C2.96819 15.5266 2.98937 15.6183 3.03062 15.7014C3.07186 15.7845 3.13201 15.8568 3.20625 15.9125L5.34375 17.5156V28.5C4.71407 28.5007 4.11039 28.7512 3.66515 29.1964C3.2199 29.6416 2.96945 30.2453 2.96875 30.875C2.96875 30.8997 2.96919 30.9247 2.97008 30.9498C2.40995 31.0938 1.92161 31.4373 1.5967 31.9158C1.27179 32.3942 1.13263 32.9748 1.20533 33.5486C1.27804 34.1223 1.55761 34.6498 1.99159 35.0321C2.42557 35.4144 2.98414 35.6252 3.5625 35.625H34.4375C35.0158 35.6252 35.5744 35.4144 36.0084 35.0321C36.4424 34.6498 36.7219 34.1223 36.7946 33.5486C36.8673 32.9748 36.7282 32.3942 36.4033 31.9158C36.0784 31.4373 35.59 31.0938 35.0299 30.9498ZM24.3437 2.375H29.0937V3.5625H24.3437V2.375ZM24.9375 7.71875V4.75H28.5V10.3632L24.8813 7.71875H24.9375ZM19 4.89161L33.4396 15.4437L32.0571 16.4806L19.3493 7.23855C19.2478 7.16473 19.1255 7.12496 19 7.12496C18.8745 7.12496 18.7522 7.16473 18.6507 7.23855L5.94291 16.4806L4.56037 15.4437L19 4.89161ZM2.375 33.25C2.37533 32.9382 2.49811 32.6391 2.71689 32.4169C2.93568 32.1948 3.23295 32.0675 3.54468 32.0625H3.54609C3.57645 32.0667 3.60681 32.0704 3.63775 32.0724C3.73615 32.0786 3.83454 32.0602 3.92405 32.0189C4.01356 31.9775 4.09136 31.9146 4.15045 31.8357C4.20954 31.7567 4.24804 31.6643 4.26249 31.5668C4.27694 31.4693 4.26688 31.3697 4.23321 31.277C4.18407 31.1486 4.15802 31.0125 4.15625 30.875C4.15662 30.5602 4.28185 30.2583 4.50447 30.0357C4.72709 29.8131 5.02892 29.6879 5.34375 29.6875V34.4375H3.5625C3.24767 34.4371 2.94584 34.3119 2.72322 34.0893C2.5006 33.8667 2.37537 33.5648 2.375 33.25ZM27.9062 34.4375H20.7812V21.375H27.9062V34.4375ZM29.0937 34.4375V20.7812C29.0937 20.6238 29.0312 20.4728 28.9198 20.3614C28.8085 20.2501 28.6575 20.1875 28.5 20.1875H20.1875C20.03 20.1875 19.879 20.2501 19.7676 20.3614C19.6563 20.4728 19.5937 20.6238 19.5937 20.7812V34.4375H6.53125V17.5211L19 8.45292L31.4687 17.5211V34.4375H29.0937ZM34.4375 34.4375H32.6562V29.6875C32.9711 29.6879 33.2729 29.8131 33.4955 30.0357C33.7181 30.2583 33.8434 30.5602 33.8437 30.875C33.842 31.0126 33.8159 31.1488 33.7668 31.2773C33.7331 31.37 33.723 31.4696 33.7375 31.5671C33.7519 31.6646 33.7904 31.757 33.8495 31.836C33.9086 31.9149 33.9864 31.9778 34.0759 32.0192C34.1654 32.0605 34.2638 32.0789 34.3622 32.0727C34.3932 32.0707 34.4235 32.067 34.4539 32.0628H34.4553C34.7702 32.0652 35.0713 32.1925 35.2924 32.4169C35.5134 32.6413 35.6362 32.9443 35.6339 33.2592C35.6315 33.5741 35.5041 33.8753 35.2798 34.0963C35.0554 34.3173 34.7524 34.4402 34.4375 34.4378V34.4375Z" fill="#131418"/>
<path d="M16.625 20.1875H9.5C9.34253 20.1875 9.19151 20.2501 9.08016 20.3614C8.96881 20.4728 8.90625 20.6238 8.90625 20.7812V29.0938C8.90625 29.2512 8.96881 29.4022 9.08016 29.5136C9.19151 29.6249 9.34253 29.6875 9.5 29.6875H16.625C16.7825 29.6875 16.9335 29.6249 17.0448 29.5136C17.1562 29.4022 17.2188 29.2512 17.2188 29.0938V20.7812C17.2188 20.6238 17.1562 20.4728 17.0448 20.3614C16.9335 20.2501 16.7825 20.1875 16.625 20.1875ZM16.0312 24.3438H13.6562V21.375H16.0312V24.3438ZM12.4688 21.375V24.3438H10.0938V21.375H12.4688ZM10.0938 25.5312H12.4688V28.5H10.0938V25.5312ZM13.6562 28.5V25.5312H16.0312V28.5H13.6562Z" fill="#131418"/>
<path d="M23.1111 27.5397C23.2366 27.2367 23.0927 26.8894 22.7898 26.7639C22.4868 26.6384 22.1395 26.7823 22.014 27.0852C21.8885 27.3882 22.0324 27.7355 22.3353 27.861C22.6383 27.9865 22.9856 27.8426 23.1111 27.5397Z" fill="#131418"/>
</svg>
