<svg width="94" height="32" viewBox="0 0 94 32" fill="none" xmlns="http://www.w3.org/2000/svg">
<path d="M26.663 4.72628C29.1055 7.78816 30.3267 11.4075 30.3267 15.5844C30.3267 19.8321 29.1055 23.4692 26.663 26.4957C24.2206 29.5044 20.5127 31.0088 15.5394 31.0088C10.5661 31.0088 6.85821 29.5044 4.4158 26.4957C1.97338 23.4692 0.752169 19.8321 0.752169 15.5844C0.752169 11.4075 1.97338 7.78816 4.4158 4.72628C6.85821 1.66441 10.5661 0.133477 15.5394 0.133477C20.5127 0.133477 24.2206 1.66441 26.663 4.72628ZM15.5129 6.53155C13.3005 6.53155 11.5926 7.31914 10.3891 8.89432C9.20329 10.4518 8.61038 12.6818 8.61038 15.5844C8.61038 18.487 9.20329 20.7259 10.3891 22.3011C11.5926 23.8763 13.3005 24.6638 15.5129 24.6638C17.7252 24.6638 19.4243 23.8763 20.6101 22.3011C21.7959 20.7259 22.3888 18.487 22.3888 15.5844C22.3888 12.6818 21.7959 10.4518 20.6101 8.89432C19.4243 7.31914 17.7252 6.53155 15.5129 6.53155ZM90.1659 4.72628C92.6083 7.78816 93.8295 11.4075 93.8295 15.5844C93.8295 19.8321 92.6083 23.4692 90.1659 26.4957C87.7235 29.5044 84.0156 31.0088 79.0423 31.0088C74.069 31.0088 70.3611 29.5044 67.9187 26.4957C65.4762 23.4692 64.255 19.8321 64.255 15.5844C64.255 11.4075 65.4762 7.78816 67.9187 4.72628C70.3611 1.66441 74.069 0.133477 79.0423 0.133477C84.0156 0.133477 87.7235 1.66441 90.1659 4.72628ZM79.0157 6.53155C76.8034 6.53155 75.0955 7.31914 73.892 8.89432C72.7062 10.4518 72.1132 12.6818 72.1132 15.5844C72.1132 18.487 72.7062 20.7259 73.892 22.3011C75.0955 23.8763 76.8034 24.6638 79.0157 24.6638C81.2281 24.6638 82.9271 23.8763 84.113 22.3011C85.2988 20.7259 85.8917 18.487 85.8917 15.5844C85.8917 12.6818 85.2988 10.4518 84.113 8.89432C82.9271 7.31914 81.2281 6.53155 79.0157 6.53155Z" fill="black"/>
<path d="M61.5471 30H52.1226L47.1316 21.3188L42.114 30H32.9284L42.8042 15.3455L33.3531 1.11575H42.6184L47.4501 9.50493L52.1757 1.11575H61.1755L51.6713 15.2128L61.5471 30Z" fill="#727272"/>
</svg>
