<svg width="146" height="158" viewBox="0 0 146 158" fill="none" xmlns="http://www.w3.org/2000/svg">
<path d="M60.7106 130.428C59.4894 129.749 58.2166 129.215 56.918 128.777C55.7312 128.381 54.5272 128.08 53.5812 129.267C53.1856 129.757 52.8846 130.368 52.575 130.935C52.2396 131.555 51.9128 132.182 51.6376 132.845C51.07 134.229 49.9778 135.425 50.1498 136.964C50.167 137.093 50.0896 137.772 50.1584 137.841C50.0466 138.254 51.2076 138.383 51.5774 138.409C53.7446 138.546 55.9118 138.469 58.0704 138.185C58.3026 138.151 58.5348 138.005 58.595 137.712C59.0336 135.416 59.8162 133.3 60.8998 131.34C61.0632 131.064 60.9686 130.574 60.7106 130.428Z" fill="#EA3838"/>
<path d="M90.8363 53.0796C90.6127 51.3166 88.9099 50.1384 87.1985 50.5168C86.2955 50.0782 85.2033 50.0266 84.3347 50.6028C84.1455 50.7232 84.0853 50.9382 84.1197 51.1274C83.8875 51.2478 83.6725 51.394 83.4833 51.5746C83.0705 51.9702 83.5951 52.6324 84.0853 52.3572C84.0853 52.3572 84.0853 52.3572 84.0939 52.3572C84.2143 52.4776 84.3777 52.5464 84.5583 52.512C84.6357 52.4948 84.7045 52.4862 84.7733 52.4776C84.8163 52.6238 84.8765 52.77 84.9711 52.899C85.2033 53.2258 85.5731 53.4494 85.9601 53.4666C85.8397 53.802 85.7881 54.1632 85.8053 54.5244C85.7709 54.5674 85.7451 54.6104 85.7107 54.6448C85.6333 54.6964 85.5473 54.7394 85.4527 54.7738C85.1861 54.877 85.0571 55.1006 85.0485 55.3242C84.9195 55.436 84.7819 55.5392 84.6357 55.6338C84.5067 55.5306 84.3347 55.4876 84.1369 55.565C82.9329 56.0294 81.7289 56.4938 80.4991 56.9238C78.4695 57.199 76.4055 57.3366 74.3845 57.6118C73.2493 57.7666 72.1313 57.9816 71.0305 58.2826C69.6803 58.2826 68.3387 58.2482 66.9971 58.1966C64.1763 57.8096 61.3555 57.457 58.5347 57.0872C58.2165 57.0442 57.9499 57.3882 57.9499 57.672C57.9413 57.93 58.0101 58.1536 58.1219 58.3428C58.0703 58.575 58.1563 58.833 58.4659 58.919C58.7325 58.9964 58.9991 59.0652 59.2657 59.134C59.3431 59.2114 59.4549 59.263 59.5925 59.2544C59.6441 59.2544 59.6957 59.2458 59.7473 59.2458C60.2031 59.3576 60.6589 59.4522 61.1147 59.5382C61.2781 59.5726 61.4243 59.5296 61.5275 59.4436C62.1897 59.5296 62.8691 59.5984 63.5313 59.65C63.5571 59.4522 63.6345 59.263 63.7721 59.1254C63.8151 59.0824 63.8581 59.048 63.9097 59.0308C64.0215 58.8502 64.1849 58.7212 64.4085 58.6954C64.8127 58.6438 65.1481 58.9534 65.3631 59.3146C65.5953 59.3232 65.8275 59.3318 66.0597 59.3404C66.2059 59.349 66.3521 59.3576 66.4983 59.3662C66.3865 59.6156 66.4811 59.9596 66.7907 60.0714C67.2379 60.2262 67.7453 60.2606 68.2183 60.3036C68.3129 60.381 68.4333 60.4326 68.5623 60.4326C69.3793 60.467 70.1963 60.4498 71.0047 60.3982C71.7443 60.3724 72.4839 60.3036 73.2063 60.1574C73.2235 60.1574 73.2407 60.1488 73.2579 60.1402C75.1585 59.8392 77.0247 59.349 78.8651 58.7556C78.9511 58.7384 79.0371 58.7212 79.1145 58.704C79.9831 58.5062 80.8345 58.2654 81.6773 57.9644C81.9353 57.9214 82.2019 57.8784 82.4599 57.8268C84.6185 57.414 86.8459 56.7346 88.6519 55.4446C89.3141 54.9716 89.9763 54.318 90.1311 53.501C90.4579 53.6472 90.8879 53.4838 90.8363 53.0796Z" fill="#EA3838"/>
<path d="M108.122 49.545C108.011 49.1752 107.899 48.8054 107.787 48.427L107.503 47.4724C107.417 47.18 107.357 46.8446 107.185 46.5866C106.824 46.0362 106.17 46.148 105.723 46.5264C105.654 46.5866 105.577 46.6554 105.517 46.7242C105.422 46.7586 105.336 46.8274 105.267 46.9306C105.164 47.094 105.052 47.2574 104.958 47.4294C104.923 47.481 104.897 47.524 104.872 47.5756C104.622 47.9884 104.381 48.4098 104.132 48.8312C103.831 49.3472 103.332 49.9922 103.582 50.6286C103.84 51.2564 104.553 51.2478 105.121 51.2736C105.843 51.308 106.574 51.3768 107.297 51.3768C107.856 51.3768 108.346 51.0672 108.337 50.4566C108.329 50.147 108.208 49.8374 108.122 49.545Z" fill="#EA3838"/>
<path d="M125.443 19.101C123.628 15.9878 120.833 13.4078 117.548 11.9114C110.315 8.6004 101.406 10.6644 96.134 16.5468C93.5798 19.3934 91.8512 22.9882 91.232 26.7636C90.6386 30.41 90.9912 34.4606 93.1154 37.591C93.4508 38.0812 93.8292 38.5456 94.2506 38.9584C97.9056 44.7806 105.99 46.6468 112.448 45.3654C116.241 44.6172 119.853 42.7768 122.545 39.9904C125.185 37.2642 126.965 33.678 127.507 29.9198C128.057 26.1702 127.352 22.3776 125.443 19.101ZM121.865 32.8438C121.753 33.291 121.573 33.7296 121.375 34.1424C121.126 34.6584 120.291 34.2886 120.455 33.7554C120.592 33.3168 120.764 32.8696 120.979 32.4654C121.246 31.9752 121.994 32.3192 121.865 32.8438ZM122.338 30.2552C122.063 30.8056 121.134 30.4186 121.341 29.8338C121.908 28.2428 122.226 26.5572 122.175 24.863C122.089 21.9132 120.868 19.0666 118.726 17.0284C116.671 15.0676 113.91 13.8808 111.072 13.812C110.419 13.7948 110.419 12.7886 111.072 12.7886C112.852 12.7972 114.59 13.2014 116.215 13.9238C119.13 15.231 121.409 17.639 122.605 20.5888C123.852 23.6332 123.835 27.3054 122.338 30.2552Z" fill="#EA3838"/>
<path d="M13.9954 60.3122C11.8024 60.3122 10.0222 58.532 10.0222 56.339C10.0222 54.146 11.8024 52.3658 13.9954 52.3658C16.1884 52.3658 17.9686 54.146 17.9686 56.339C17.9686 58.5234 16.1884 60.3122 13.9954 60.3122ZM13.9954 54.1288C12.7828 54.1288 11.7938 55.1178 11.7938 56.3304C11.7938 57.543 12.7828 58.532 13.9954 58.532C15.208 58.532 16.197 57.543 16.197 56.3304C16.197 55.1178 15.208 54.1288 13.9954 54.1288Z" fill="#EA3838"/>
<path d="M110.582 146.45C108.389 146.45 106.609 144.67 106.609 142.477C106.609 140.284 108.389 138.503 110.582 138.503C112.775 138.503 114.555 140.284 114.555 142.477C114.555 144.67 112.775 146.45 110.582 146.45ZM110.582 140.275C109.369 140.275 108.38 141.264 108.38 142.477C108.38 143.689 109.369 144.678 110.582 144.678C111.795 144.678 112.784 143.689 112.784 142.477C112.784 141.264 111.795 140.275 110.582 140.275Z" fill="#EA3838"/>
<path d="M63.1102 73.5648C62.878 73.3842 62.534 73.3842 62.3792 73.7196C62.1126 74.2872 61.8546 74.8462 61.588 75.4138C61.4332 75.7406 61.2612 76.076 61.115 76.4114C60.986 76.4114 60.8484 76.4716 60.7194 76.6178C58.9822 78.57 56.5311 79.8772 53.9339 80.1868C51.3711 80.4964 48.7997 79.7912 46.6841 78.3206C45.4887 77.4864 44.4911 76.42 43.7429 75.173C43.6913 75.087 43.6311 75.0268 43.5623 74.9752C43.4247 74.6828 43.3043 74.3904 43.1753 74.0894C43.0463 73.7798 42.7367 73.6938 42.5045 73.7798C42.4615 73.668 42.4185 73.5476 42.3841 73.4272C42.1691 72.7994 41.1887 73.066 41.3865 73.7024C41.9025 75.345 42.7195 76.9016 43.7859 78.2518C45.1619 80.4878 47.4753 82.1304 50.0639 82.698C50.3133 82.7496 50.5713 82.8012 50.8207 82.8356C54.6133 83.7129 58.7672 82.6894 61.502 79.8256C63.0844 78.1658 64.1164 76.0416 64.34 73.754C64.4174 73.0316 63.3596 72.9714 63.1102 73.5648Z" fill="#EA3838"/>
<path d="M33.6294 107.509C32.9844 106.941 32.2018 106.486 31.4278 106.271C30.3098 105.591 29.123 104.998 27.9104 104.473C24.2124 102.461 20.1704 101.093 15.9994 100.448C14.0214 100.139 12.0262 99.9926 10.0224 100.036C9.49781 100.044 9.38601 100.698 9.70421 100.956C9.62681 100.964 9.54941 100.982 9.46341 100.999C9.00761 101.076 8.99901 101.566 9.24841 101.833C9.17961 102.134 9.33441 102.469 9.71281 102.418C10.8136 102.272 11.8542 102.082 12.9722 102.134C13.3334 102.151 13.686 102.194 14.03 102.254C14.0558 102.28 14.0902 102.297 14.1246 102.315C15.5006 102.968 16.9798 103.458 18.3988 104.017C19.319 104.37 20.2306 104.731 21.1508 105.092C22.372 105.798 23.7222 106.357 25.0208 106.89C25.0552 106.976 25.124 107.062 25.2358 107.122C26.0184 107.604 26.8526 108.008 27.6524 108.446C28.4608 108.885 29.2606 109.341 30.1034 109.711C30.37 109.831 30.628 109.728 30.757 109.547C31.015 109.685 31.273 109.822 31.531 109.951C31.9266 110.158 32.3136 110.373 32.7092 110.571C33.0876 109.582 33.423 108.558 33.6294 107.509Z" fill="#EA3838"/>
<path d="M124.015 94.1274C123.56 93.233 123.044 92.3902 122.459 91.5818C122.184 91.1948 121.745 91.1174 121.41 91.5646C121.41 91.5646 121.229 91.8054 121.143 91.943C120.747 92.545 120.395 93.1728 120.034 93.792C119.75 94.265 119.217 94.9702 119.819 95.4346C120.283 95.7958 121.04 95.4776 121.539 95.3744C122.261 95.2196 122.983 95.0648 123.706 94.91C124.058 94.8326 124.162 94.4112 124.015 94.1274Z" fill="#EA3838"/>
<path d="M52.3172 22.4034C49.9608 18.9204 47.7248 15.3428 45.1878 11.9888C43.8548 10.2344 42.41 8.566 41.0254 6.846C39.9676 5.5302 38.9184 4.1886 37.9208 2.8212C37.8778 8.9616 38.0584 15.102 38.454 21.2252C38.5744 23.0484 38.6948 24.8716 38.884 26.6862V26.6948C38.712 27.0388 38.798 27.5032 39.271 27.615C44.2074 28.7932 49.763 27.6924 53.7534 24.4932C53.2804 23.8052 52.7988 23.1086 52.3172 22.4034Z" fill="#EA3838"/>
<path d="M54.0201 50.147C53.2117 49.7514 52.2313 49.6568 51.3455 49.7858C50.6145 49.889 49.6255 50.147 49.4965 51.0156C49.3761 51.8326 50.0641 52.1508 50.7349 52.2454C51.1821 52.4604 51.6723 52.5808 52.1711 52.6238C52.8935 52.6754 53.8567 52.5464 54.4157 52.0304C55.0779 51.4198 54.7511 50.4996 54.0201 50.147Z" fill="#EA3838"/>
<path d="M64.3917 50.8694C64.8905 50.5168 65.3205 50.233 65.8623 49.9062C66.2923 49.6482 66.7395 49.4074 67.1868 49.1752C66.4385 48.8914 65.5871 48.8312 64.8131 48.943C64.0821 49.0462 63.0931 49.3042 62.9641 50.1728C62.8695 50.8522 63.3167 51.179 63.8499 51.3252C64.0047 51.1446 64.2111 50.9984 64.3917 50.8694Z" fill="#EA3838"/>
<path d="M142.514 73.5906C141.043 71.9136 138.472 72.3178 136.511 72.292C134.206 72.2662 131.738 71.8448 130.646 69.5142C129.502 67.0804 130.001 64.1994 128.9 61.7398C128.436 60.7078 127.688 59.7532 126.69 59.2114C125.675 58.661 124.531 58.6438 123.465 59.0652C121.031 60.0284 119.905 62.703 118.967 64.9906C118.838 65.3088 118.701 65.6356 118.563 65.971C117.643 68.0952 115.312 69.2304 113.076 68.6628C112.62 68.5424 112.173 68.4306 111.743 68.3274C109.464 67.7856 106.79 67.5706 104.932 69.3508C103.049 71.1568 103.599 73.9432 105.13 75.775C106.084 76.9102 107.366 77.7358 108.518 78.6904C109.86 79.7912 110.496 81.5456 110.144 83.2398C110.144 83.2484 110.144 83.257 110.135 83.2656C109.868 84.5212 109.258 85.6564 108.63 86.7572C107.452 88.8212 106.024 91.255 106.738 93.7404C107.03 94.738 107.615 95.684 108.501 96.2258C109.456 96.802 110.565 96.802 111.588 96.415C112.698 96.0022 113.627 95.2024 114.512 94.4198C115.476 93.5598 116.413 92.6482 117.445 91.8656C118.004 91.4442 118.606 91.0744 119.242 90.782C120.309 90.3004 121.521 90.2316 122.622 90.61C122.691 90.6358 122.76 90.653 122.82 90.6788C125.314 91.6248 127.146 93.749 129.322 95.2282C131.308 96.5784 133.656 97.4298 135.995 96.5698C136.941 96.2258 137.844 95.5722 138.377 94.6864C139.005 93.6458 139.1 92.3902 138.79 91.2292C138.446 89.9392 137.732 88.8212 137.036 87.7032C136.348 86.611 135.625 85.3726 135.548 84.0482C135.385 81.1758 138.687 80.4104 140.596 79.2838C141.62 78.6732 142.523 77.8562 142.961 76.7038C143.383 75.6804 143.271 74.4592 142.514 73.5906ZM134.843 74.657C131.962 74.3818 128.917 73.625 126.922 71.3804C125.985 70.3226 125.305 69.0326 125.004 67.648C124.703 66.2548 124.66 64.5348 125.271 63.219C125.52 62.6686 126.251 63.0986 126.174 63.5974C126.054 64.3112 125.873 64.9734 125.864 65.7044C125.864 66.3666 125.942 67.0202 126.122 67.6566C126.449 68.8262 127.077 69.8926 127.92 70.7612C129.812 72.6962 132.469 73.0402 134.98 73.6594C135.522 73.797 135.41 74.7086 134.843 74.657ZM139.375 74.9924C138.773 74.5366 138.266 74.399 137.517 74.5022C137.277 74.5366 137.07 74.2958 137.036 74.0808C137.001 73.8228 137.156 73.6336 137.388 73.5476C138.231 73.2036 139.418 73.5132 139.986 74.2184C140.312 74.6054 139.865 75.3622 139.375 74.9924Z" fill="#EA3838"/>
<path d="M141.284 46.019C139.091 46.019 137.311 44.2388 137.311 42.0458C137.311 39.8528 139.091 38.0726 141.284 38.0726C143.477 38.0726 145.257 39.8528 145.257 42.0458C145.257 44.2302 143.477 46.019 141.284 46.019ZM141.284 39.8356C140.072 39.8356 139.083 40.8246 139.083 42.0372C139.083 43.2498 140.072 44.2388 141.284 44.2388C142.497 44.2388 143.486 43.2498 143.486 42.0372C143.486 40.8246 142.497 39.8356 141.284 39.8356Z" fill="#EA3838"/>
<path d="M62.0696 51.0586C61.9578 50.0696 61.7342 49.0892 61.5536 48.1174C61.3558 47.051 61.158 45.976 60.9516 44.9096C60.8312 44.2732 59.8852 44.5484 59.9884 45.1762C60.2722 46.8532 60.5732 48.5302 60.8742 50.2072C61.0032 50.9124 61.2096 51.7552 60.8742 52.4346C60.5818 53.0194 59.9626 53.2602 59.3348 53.2688C58.793 53.2688 58.6296 54.1546 59.2058 54.2492C60.0056 54.3782 60.814 54.103 61.3816 53.5182C62.018 52.8474 62.1642 51.9444 62.0696 51.0586Z" fill="black"/>
<path d="M65.9396 45.6492C65.2602 44.858 63.867 45.3654 63.9358 46.4404C63.9358 46.5006 63.953 46.5608 63.9616 46.621C63.9616 46.6984 63.9702 46.7758 63.9874 46.8532C64.0992 47.309 64.5206 47.5842 64.9764 47.6186C65.9998 47.6874 66.6018 46.4146 65.9396 45.6492Z" fill="black"/>
<path d="M53.7017 46.5608C53.2459 45.804 52.0591 45.8126 51.6463 46.6124C51.4399 47.0166 51.4743 47.4982 51.7753 47.8422C51.8613 47.9368 51.9645 48.0228 52.0763 48.0744C52.2741 48.2292 52.5321 48.3238 52.8159 48.298C53.6587 48.2378 54.1403 47.2832 53.7017 46.5608Z" fill="black"/>
<path d="M86.0291 144.885C85.4787 141.29 82.2107 138.624 79.1233 137.136C77.2829 136.25 75.3393 135.622 73.3957 135.012C71.3059 134.35 69.1989 133.713 67.1005 133.085C65.2085 132.526 63.3165 131.985 61.4245 131.46C61.1923 131.4 60.9515 131.494 60.8225 131.701C60.8225 131.701 60.8225 131.709 60.8139 131.709C60.6333 132.01 60.7881 132.406 61.1321 132.492C62.2845 132.81 63.4283 133.137 64.5721 133.472C66.6275 134.066 68.6743 134.676 70.7211 135.313C72.6819 135.915 74.6513 136.5 76.5691 137.231C78.5299 137.97 80.4735 138.933 82.0387 140.352C83.5007 141.668 84.5069 143.276 85.0487 145.16C85.2379 145.779 86.1237 145.504 86.0291 144.885Z" fill="black"/>
<path d="M79.6221 55.7198C79.2351 54.1202 78.1515 52.6066 76.9389 51.523C75.6145 50.3362 73.9633 49.5278 72.2089 49.2526C68.6829 48.6936 65.1741 50.1384 63.0585 53.0108C62.4823 53.7934 61.9147 54.748 61.8459 55.7456C61.7857 56.683 62.3189 57.629 63.2563 57.8784C63.8927 58.0504 64.1593 57.07 63.5315 56.8894C62.7747 56.6744 62.8177 55.7456 63.0327 55.1522C63.2735 54.4814 63.7035 53.8278 64.1593 53.2774C65.0537 52.1852 66.2233 51.2994 67.5305 50.7662C70.3341 49.631 73.6881 50.1298 76.0101 52.0906C77.2743 53.157 78.0483 54.4728 78.6589 55.9864C78.8911 56.5712 79.7769 56.3648 79.6221 55.7198Z" fill="black"/>
<path d="M67.9003 51.7466C67.1865 52.1078 66.5501 52.641 65.9911 53.2086C65.4321 53.7848 64.8903 54.447 64.5979 55.2038C64.3313 55.8918 64.3485 56.7346 64.7871 57.3452C65.2257 57.9558 66.0341 58.2482 66.7307 57.9214C67.1435 57.7236 66.9629 56.9668 66.4899 57.027C65.9825 57.0872 65.5697 56.9066 65.4837 56.3562C65.3977 55.7972 65.6815 55.2812 65.9911 54.8426C66.6361 53.9224 67.5047 53.2516 68.3991 52.598C68.8979 52.2282 68.4679 51.4628 67.9003 51.7466Z" fill="black"/>
<path d="M71.2114 53.1312C71.607 52.7614 71.0738 52.039 70.618 52.3658C69.9042 52.8732 69.2764 53.4752 68.7088 54.146C68.1756 54.7738 67.6252 55.4618 67.522 56.3132C67.3242 57.9386 69.0442 59.2372 70.5406 58.5062C71.0566 58.2568 70.6954 57.457 70.1622 57.6032C69.6548 57.7408 69.1216 57.715 68.7776 57.2592C68.4336 56.8034 68.5368 56.253 68.7948 55.7886C69.371 54.748 70.36 53.931 71.2114 53.1312Z" fill="black"/>
<path d="M73.2668 54.5416C72.6304 55.2726 71.9768 55.952 71.22 56.554C70.7814 56.898 71.349 57.6376 71.822 57.328C72.6906 56.7604 73.4818 56.0122 74.0408 55.135C74.3332 54.6706 73.6366 54.1202 73.2668 54.5416Z" fill="black"/>
<path d="M81.3076 94.9874C77.6698 90.2574 75.279 84.7706 72.785 79.387C70.0588 73.496 67.324 67.6136 64.5978 61.7226C64.3054 61.0948 63.755 60.2348 64.0904 59.5296C64.4688 58.7298 65.475 59.5124 65.9222 59.8306C67.2208 60.7594 68.3474 61.9204 69.3106 63.1846C69.689 63.6834 70.5318 63.2276 70.1706 62.6858C69.3278 61.4302 68.2786 60.3294 67.0918 59.4006C66.0942 58.618 64.4 57.371 63.3422 58.7556C62.336 60.0714 63.4712 61.7914 64.0474 63.0298C64.787 64.6294 65.5266 66.229 66.2748 67.8372C66.7478 68.852 67.2122 69.8668 67.6852 70.8816C67.0574 70.615 66.3952 70.4172 65.7502 70.2796C65.174 70.1592 64.5806 70.0904 63.9872 70.0732C63.5142 70.0646 62.981 70.056 62.4994 70.1506C62.2672 69.4024 62.0866 68.6456 61.949 67.8802C61.8028 67.0804 61.7856 66.272 61.6566 65.4722C61.6566 65.455 61.648 65.4464 61.648 65.4292C62.422 64.9562 63.0842 64.3456 63.6002 63.5802C63.9958 62.9954 63.0412 62.445 62.6542 63.0212C61.0632 65.3862 57.9156 65.7732 55.4044 64.8702C52.446 63.8038 50.511 61.3012 48.7738 58.8244C48.404 58.2998 47.5526 58.7728 47.8966 59.3318C50.4078 63.477 55.2668 68.0092 60.5214 65.9796C60.573 65.9624 60.6246 65.9366 60.6762 65.9194C60.659 66.6934 60.7966 67.4932 60.917 68.2414C61.0546 69.1186 61.2696 69.9872 61.5448 70.8386C61.9662 72.1286 62.5854 73.8916 64.013 74.3732C64.486 74.5366 64.8988 73.8486 64.5118 73.5132C64.0044 73.0746 63.5916 72.6962 63.2648 72.0942C63.1014 71.7932 62.9638 71.475 62.8434 71.1568C63.2046 71.131 63.5572 71.088 63.9184 71.0966C64.4688 71.1052 65.0106 71.174 65.5438 71.2858C66.6016 71.518 67.5046 71.9566 68.4334 72.4812C69.1816 74.1066 69.9384 75.7234 70.6866 77.3488C72.0884 80.376 73.4558 83.4118 74.9264 86.4046C76.5088 89.621 78.2546 92.7772 80.482 95.6066C80.8432 96.0882 81.6688 95.4604 81.3076 94.9874Z" fill="black"/>
<path d="M82.7782 146.269C82.1246 145.246 81.3334 144.308 80.4562 143.483C79.5876 142.666 78.633 141.935 77.6096 141.316C76.6206 140.714 75.494 140.103 74.3588 139.836C73.8428 139.716 73.4559 140.49 73.9804 140.731C74.9866 141.195 76.0014 141.574 76.9646 142.15C77.8934 142.709 78.762 143.362 79.5446 144.102C81.1614 145.624 82.761 147.559 82.8814 149.864C82.9158 150.518 83.8446 150.509 83.8962 149.864C84.008 148.591 83.449 147.31 82.7782 146.269Z" fill="black"/>
<path d="M77.283 146.845C76.5606 145.891 75.7092 145.057 74.746 144.343C73.8344 143.672 72.6992 142.958 71.5726 142.726C71.0566 142.614 70.6782 143.354 71.1942 143.62C71.6844 143.87 72.209 144.042 72.6992 144.3C73.1894 144.558 73.6538 144.85 74.101 145.168C74.9696 145.796 75.7608 146.579 76.3972 147.439C77.0766 148.359 77.6184 149.382 77.9882 150.466C78.3665 151.601 78.5041 152.736 78.5987 153.923C78.6503 154.577 79.5792 154.585 79.6136 153.923C79.7512 151.446 78.7622 148.798 77.283 146.845Z" fill="black"/>
<path d="M85.2723 106.718C84.7907 107.002 84.3521 107.354 83.8619 107.629C83.3459 107.913 82.8127 108.145 82.2537 108.317C81.1529 108.661 80.0779 108.704 78.9427 108.661C78.5041 106.623 78.0053 104.594 77.4549 102.59C76.5777 99.4336 75.6231 96.2516 74.3675 93.2158C74.1353 92.6482 73.2151 92.8632 73.4215 93.4738C74.3417 96.2172 75.3049 98.9262 76.0961 101.713C76.8873 104.49 77.5667 107.303 78.1343 110.132C79.2781 115.799 79.9575 121.561 80.1897 127.341C80.3187 130.609 80.1983 133.859 80.1639 137.127C80.1553 137.824 81.1615 137.798 81.2217 137.127C81.4797 134.238 81.4195 131.288 81.3335 128.381C81.2475 125.466 81.0411 122.559 80.7229 119.661C80.3531 116.324 79.8285 112.996 79.1577 109.702C80.2843 109.822 81.4625 109.659 82.5289 109.341C83.6727 108.997 85.0573 108.412 85.8571 107.483C86.2097 107.079 85.7797 106.425 85.2723 106.718Z" fill="black"/>
<path d="M61.7512 73.926C60.7794 76.678 58.5606 78.7248 55.714 79.4214C52.5665 80.1954 49.2039 79.2408 46.6583 77.2972C45.2651 76.2308 44.1729 74.8892 43.2011 73.4358C42.8399 72.9026 42.0057 73.3756 42.3325 73.9432C44.0009 76.8844 46.8733 79.301 50.1155 80.2728C53.4437 81.2704 57.1244 80.7544 59.8592 78.5442C61.2094 77.452 62.3532 75.904 62.8004 74.2012C62.9724 73.539 61.9834 73.281 61.7512 73.926Z" fill="black"/>
<path d="M50.9239 82.2508C49.3845 81.9154 47.9569 81.3994 46.6583 80.4964C46.0391 80.0664 45.4715 79.5676 44.9555 79.0172C44.3965 78.4238 44.0095 77.753 43.5279 77.0994C43.2269 76.6952 42.4099 76.9188 42.6335 77.4778C42.9517 78.2604 43.5279 78.9828 44.0869 79.6106C44.6631 80.2556 45.3167 80.8318 46.0219 81.3306C47.4151 82.3282 49.0835 83.042 50.7949 83.2398C51.3539 83.3 51.4743 82.3712 50.9239 82.2508Z" fill="black"/>
<path d="M95.8416 86.6282C95.4546 84.5814 94.7666 82.5346 93.7088 80.7286C93.382 80.1696 92.5478 80.6598 92.8402 81.236C94.4484 84.418 95.3256 87.8322 95.1364 91.4184C94.9644 94.7466 93.8636 97.9888 92.0318 100.767C91.0084 102.323 89.7528 103.63 88.394 104.886C87.9898 105.256 88.5402 106.013 88.996 105.669C91.6964 103.587 93.7174 100.534 94.93 97.3696C96.2286 93.964 96.5124 90.2144 95.8416 86.6282Z" fill="black"/>
<path d="M90.8967 75.216C89.3229 72.5844 87.7147 69.9786 86.1237 67.3642C85.3325 66.0656 84.5413 64.7756 83.7587 63.477C83.3717 62.8406 83.7329 63.4426 83.3459 62.8148C82.9331 62.1354 82.5461 61.413 82.0731 60.7766C81.7033 60.2778 80.9465 60.6906 81.2303 61.2668C81.5743 61.9806 82.0473 62.6514 82.4515 63.3394C82.8385 63.9758 82.4773 63.3738 82.8643 64.0102C83.6555 65.3088 84.4381 66.5988 85.2293 67.8974C86.8203 70.5118 88.4027 73.1348 90.0109 75.7406C90.3549 76.2996 91.2407 75.7922 90.8967 75.216Z" fill="black"/>
<path d="M122.648 96.2688C122.528 95.6324 121.582 95.9076 121.676 96.5354C123.018 104.963 120.575 113.675 114.779 119.988C111.975 123.032 108.578 125.268 104.82 126.971C100.933 128.734 96.8136 130.067 93.1758 132.354C89.6584 134.573 86.4764 137.712 85.4014 141.849C85.238 142.485 86.2184 142.752 86.3818 142.124C87.3708 138.435 90.14 135.597 93.2618 133.558C96.8824 131.193 101.019 129.852 104.949 128.115C108.776 126.42 112.276 124.21 115.183 121.174C117.952 118.276 120.111 114.81 121.47 111.026C123.147 106.322 123.585 101.171 122.648 96.2688Z" fill="black"/>
<path d="M59.4896 57.4226C59.5756 57.4312 59.6702 57.4484 59.7562 57.457C59.9024 57.4914 60.0486 57.5172 60.1862 57.5516C60.5216 57.629 60.8484 57.7236 61.1924 57.758C61.7858 57.8182 61.8116 56.9668 61.3214 56.7862C61.0978 56.7002 60.599 56.6486 60.3926 56.6056C59.5412 56.425 58.7156 56.2702 57.8728 56.0466C57.0644 55.823 56.3076 55.4962 55.5766 55.1092C55.2412 54.9286 54.923 55.1522 54.837 55.4274C54.7854 55.5048 54.751 55.5908 54.751 55.694C54.751 56.21 54.8886 56.7432 55.1294 57.2162C55.4648 58.016 56.1442 58.747 56.7634 59.2114C57.6578 59.8822 58.8532 60.2864 59.9798 60.2004C60.0916 60.2004 60.212 60.2004 60.3238 60.2004C60.5646 60.209 60.8054 60.209 61.0376 60.1918C61.5536 60.1402 61.7428 59.3662 61.1666 59.2286C60.685 59.1168 60.1432 59.0824 59.6186 59.0652C59.5068 59.0652 59.3262 59.0308 59.223 58.9878C58.664 58.7728 58.4834 58.2654 58.664 57.8612C58.8188 57.5516 59.1542 57.3796 59.4896 57.4226Z" fill="black"/>
<path d="M86.0377 52.9334C85.5819 52.4174 84.8509 52.1938 84.1887 52.125C83.5953 52.0562 83.5781 52.9162 84.0597 53.0968C84.5155 53.2688 85.2121 53.3462 85.4099 53.8794C85.5905 54.3696 84.9541 54.6104 84.6015 54.7652C83.4147 55.2726 82.1763 55.6768 80.9379 56.0208C79.7167 56.3562 78.4697 56.6228 77.2141 56.8034C75.8897 57.0012 74.5739 57.0356 73.2409 57.1388C72.6131 57.1904 72.6045 58.0934 73.2409 58.1278C74.8061 58.2052 76.4229 57.9902 77.9623 57.7408C79.5533 57.4828 81.1271 57.1044 82.6579 56.6056C83.4147 56.3562 84.1543 56.081 84.8853 55.78C85.4529 55.5478 86.0463 55.2726 86.3387 54.6964C86.6483 54.0944 86.4677 53.415 86.0377 52.9334Z" fill="black"/>
<path d="M89.8562 50.6802C89.8218 50.6286 89.7702 50.577 89.71 50.534C88.1534 49.4762 86.012 49.3902 84.3694 50.2932C82.8816 51.1016 81.712 52.8044 81.6948 54.533C81.6862 55.092 82.6064 55.2468 82.6924 54.6706C82.916 53.243 83.5352 51.9702 84.8424 51.2306C86.055 50.5512 87.517 50.5856 88.7468 51.1704C88.7898 51.2134 88.8414 51.2564 88.9016 51.2908C90.0282 51.8842 90.5098 53.3032 89.8218 54.404C89.0908 55.565 87.5428 56.0466 86.3302 56.4938C83.0364 57.715 79.6308 58.6094 76.165 59.177C74.1956 59.4952 72.2176 59.6844 70.231 59.8048C69.5774 59.8478 69.5688 60.854 70.231 60.8282C74.1526 60.682 78.0742 60.0284 81.8582 59.0136C83.7502 58.5062 85.6078 57.8956 87.431 57.1904C88.7812 56.6658 90.2862 55.9692 90.914 54.5674C91.5246 53.2172 91.0688 51.5058 89.8562 50.6802Z" fill="black"/>
<path d="M90.0539 45.4256C89.6755 46.4232 89.5722 47.5326 89.6324 48.5904C89.6755 49.2354 90.6645 49.244 90.6473 48.5904C90.6129 47.5928 90.7591 46.6468 90.9999 45.6836C91.1633 45.0558 90.2775 44.8408 90.0539 45.4256Z" fill="black"/>
<path d="M93.365 49.0032C92.7028 49.459 92.0492 49.975 91.4472 50.4996C91.0172 50.8694 91.5848 51.6176 92.0578 51.2908C92.72 50.8264 93.3735 50.3276 93.9841 49.7944C94.3969 49.416 93.8379 48.685 93.365 49.0032Z" fill="black"/>
<path d="M67.7369 29.5672C66.4383 27.1334 64.2453 25.2242 61.8373 23.9342C60.5559 23.2462 59.1713 22.6786 57.7609 22.3346C57.3395 22.2228 57.1159 22.0508 56.8751 22.3862C53.8479 26.5744 48.9115 29.1114 43.7515 29.1372C42.1605 29.1458 40.6039 28.9136 39.0731 28.5008C38.9785 28.475 38.8925 28.475 38.8065 28.4922C38.6517 28.4836 38.4883 28.5524 38.3851 28.7416C36.8801 31.2356 36.1921 34.2714 36.0201 37.161C35.8309 40.2226 36.2781 43.3014 37.1037 46.2512C37.5681 47.9196 38.1013 49.6568 38.8753 51.2134C38.9097 51.2822 38.9527 51.3338 38.9957 51.3682C39.3483 52.7098 40.1395 53.9482 41.2833 54.7566C42.1175 55.35 43.1323 55.6854 44.1385 55.6768C44.1213 55.7714 44.1299 55.8832 44.1815 55.9864C45.8671 59.822 45.6607 64.423 43.6741 68.1124C41.6789 71.819 38.0497 74.2614 34.3689 76.0932C30.1549 78.183 25.6141 79.6106 21.6323 82.1562C18.3127 84.2804 15.4661 87.1184 13.2903 90.395C10.9941 93.8522 9.32573 97.9114 8.80973 102.048V102.057C8.68933 102.564 8.66353 103.114 8.69793 103.648C8.47433 104.68 8.87853 105.858 9.93633 106.391C10.0911 106.468 10.2459 106.468 10.3663 106.408C9.07633 110.51 8.00993 114.699 7.70893 118.999C7.38213 123.729 8.13893 128.605 10.4265 132.802C11.5015 134.771 12.9205 136.568 14.6663 137.979C16.6529 139.587 18.9835 140.653 21.4173 141.376C24.0059 142.141 26.6891 142.563 29.3465 142.95C32.2791 143.38 35.2289 143.732 38.1873 143.999C44.1471 144.532 50.1327 144.713 56.1097 144.549C56.8407 144.532 65.0193 144.893 65.7503 144.842C66.4039 144.799 66.4211 143.801 65.7503 143.81C65.2085 143.818 57.2191 143.431 56.6773 143.44C56.7805 141.703 57.2621 140.103 57.9673 138.521C58.3543 138.228 58.5865 137.798 58.4403 137.196C58.3113 136.646 57.4513 136.766 57.4599 137.325C57.4599 137.489 57.3997 137.609 57.3051 137.712C57.2879 137.729 57.2621 137.747 57.2449 137.764C56.8321 138.082 55.9463 138.039 55.5507 138.065C54.6219 138.125 53.6845 138.125 52.7557 138.065C52.2999 138.03 51.0013 138.099 50.7777 137.549C50.6487 137.231 50.8809 136.749 50.9841 136.457C51.1475 136.009 51.3453 135.571 51.5603 135.149C51.8441 134.565 50.9927 134.057 50.6831 134.633C50.3907 135.175 50.1413 135.751 49.9349 136.328C49.7457 136.852 49.6081 137.42 49.8231 137.953C50.0123 138.417 50.3821 138.675 50.8121 138.83C50.1413 140.258 49.7285 141.952 49.6597 143.517C46.7271 143.474 43.8031 143.345 40.8791 143.139C37.9981 142.932 35.1171 142.64 32.2447 142.279C29.5099 141.926 26.7665 141.548 24.0747 140.954C21.6065 140.413 19.1641 139.639 16.9969 138.323C15.0791 137.153 13.4623 135.554 12.2239 133.687C9.75573 129.981 8.69793 125.457 8.72373 121.037C8.75813 115.378 10.3749 109.9 12.0949 104.559C12.2841 103.974 12.4733 103.381 12.6625 102.796C13.9181 102.96 15.1651 103.407 16.3089 103.871C18.0031 104.568 19.6371 105.411 21.2883 106.193C22.9825 107.002 24.6767 107.81 26.3709 108.618C27.8845 109.341 29.3809 110.115 30.9117 110.803C30.9117 110.82 30.9031 110.829 30.9031 110.846C30.6365 113.082 30.2839 115.301 29.8453 117.511C29.6303 118.594 29.3895 119.678 29.1315 120.753C28.8735 121.811 28.5037 122.869 28.3059 123.935C27.9361 123.875 27.5749 123.806 27.2051 123.746C26.5601 123.634 26.2849 124.614 26.9299 124.726C35.4095 126.257 43.8375 128.029 52.1967 130.127C52.2655 130.144 52.3429 130.161 52.4117 130.179C52.6181 130.23 52.8331 130.153 52.9621 129.989L52.9707 129.981C53.2029 129.68 53.0567 129.233 52.6783 129.138C49.0577 128.226 45.4113 127.375 41.7649 126.575C37.6369 125.681 33.5003 124.847 29.3379 124.107C29.7163 123.101 29.9227 121.983 30.1721 120.951C30.4387 119.85 30.6795 118.741 30.8945 117.623C31.3073 115.498 31.6341 113.357 31.8663 111.207C31.9523 111.241 32.0297 111.276 32.1157 111.31C32.6575 111.534 33.0101 110.648 32.5113 110.373C30.6279 109.332 28.6155 108.489 26.6719 107.561C24.7713 106.658 22.8707 105.755 20.9701 104.852C18.9835 103.914 17.0141 102.899 14.9071 102.246C14.1159 101.996 13.3075 101.833 12.4819 101.738C11.6391 101.644 10.7533 101.627 9.97073 102.005C9.94493 102.014 9.91913 102.031 9.89333 102.048C10.5297 98.3844 11.7509 94.91 13.7289 91.7194C15.8187 88.3482 18.6309 85.407 21.9591 83.2312C25.9495 80.6254 30.5333 79.1806 34.7903 77.0908C38.5227 75.2504 42.1777 72.7908 44.3363 69.1444C46.7529 65.068 47.0109 59.8822 45.1017 55.565C45.3769 55.4962 45.6521 55.4016 45.9101 55.2812C46.5035 54.9974 45.9875 54.1288 45.3941 54.404C43.2441 55.3844 40.8619 53.6128 40.1481 51.6176C39.7353 50.4566 39.7611 49.1666 40.2513 48.0314C40.4405 47.5842 40.7243 46.9994 41.1973 46.793C41.7219 46.5608 42.2895 47.0338 42.6507 47.3692C43.6139 48.2808 44.1299 49.4332 44.4051 50.7146C44.4567 50.9468 44.6459 51.0586 44.8523 51.0672C44.9899 51.1446 45.1533 51.1618 45.3339 51.0844C45.9789 50.792 46.2025 50.1728 46.2971 49.5278C46.5981 48.47 46.7529 47.3262 46.9077 46.2598C47.1141 44.8408 47.2517 43.4132 47.2947 41.9856C47.3463 40.5752 47.3205 39.1734 47.2173 37.763C47.1657 37.0578 47.0969 36.3612 47.0023 35.6646C46.9765 35.4754 46.9593 35.2948 46.9335 35.1056C47.6215 35.7334 48.5159 36.1548 49.3501 36.5418C50.7949 37.2212 52.2999 37.7802 53.8479 38.2102C56.8837 39.053 60.0915 39.354 63.2391 39.1132C64.1249 39.0444 65.0107 38.9326 65.8879 38.7864C66.2577 38.7262 66.6533 38.666 67.0403 38.5886C67.0833 38.9498 67.1263 39.311 67.1521 39.6636C67.2381 40.7042 67.2983 41.7534 67.3241 42.794C67.0833 42.149 66.6705 41.6416 66.1115 41.2374C65.5955 40.859 64.8559 40.5236 64.2109 40.5838C63.6863 40.6354 63.5229 41.375 64.0819 41.5384C64.5893 41.6846 65.0451 41.762 65.4837 42.0716C65.8965 42.364 66.2061 42.7768 66.4469 43.2154C66.6533 43.5852 67.1865 43.4734 67.3327 43.1552C67.3499 43.9894 67.3499 44.8322 67.3327 45.6664C67.3241 46.1738 67.3069 46.6812 67.2811 47.1886C67.2553 47.7132 67.1693 48.2636 67.2037 48.7882C67.2381 49.33 68.0637 49.5106 68.1927 48.9258C68.4163 47.9454 68.3733 46.836 68.3991 45.8384C68.4249 44.7978 68.4249 43.7486 68.3905 42.708C68.3561 41.6932 68.2959 40.6784 68.2013 39.6722C68.1583 39.225 68.1239 38.7692 68.0809 38.3134C68.2357 38.2618 68.3819 38.193 68.5281 38.1242C68.7173 38.0296 68.7947 37.849 68.7861 37.6684C68.7861 37.6598 68.7947 37.6426 68.7947 37.634C69.5601 34.9336 69.0183 31.9924 67.7369 29.5672ZM51.0615 141.264C51.2593 140.499 51.5517 139.776 51.8355 139.045C52.0591 139.071 52.2827 139.08 52.4891 139.097C53.7963 139.209 55.1293 139.2 56.4365 139.054C56.4795 139.045 56.5311 139.045 56.5741 139.037C55.9893 140.43 55.6969 141.978 55.6367 143.466C53.9769 143.5 52.3171 143.526 50.6573 143.526C50.7605 142.769 50.8637 142.012 51.0615 141.264ZM45.6865 44.7806C45.6435 45.116 45.6177 45.46 45.5317 45.7868C45.4027 46.3286 44.5599 46.1996 44.5771 45.6578C44.5857 45.3654 44.6287 45.073 44.6631 44.7806C44.6975 44.5054 44.8695 44.2646 45.1791 44.2646C45.4285 44.2646 45.7209 44.5054 45.6865 44.7806ZM46.1079 42.4414C46.0305 42.9918 45.1017 42.8542 45.1361 42.3124C45.2995 39.87 45.2307 37.4362 44.7233 35.0368C44.5943 34.4004 45.5575 34.1338 45.6951 34.7702C46.2713 37.2814 46.4605 39.8786 46.1079 42.4414ZM58.7327 36.86C57.3137 36.8428 55.8861 36.602 54.5273 36.2322C53.1771 35.8624 51.7839 35.3722 50.5885 34.6498C50.0381 34.323 50.5197 33.5576 51.0787 33.807C52.3085 34.3574 53.5039 34.8906 54.8025 35.2346C56.0925 35.5786 57.4083 35.7678 58.7327 35.8796C59.3519 35.9398 59.3691 36.8686 58.7327 36.86ZM63.6261 36.9718C63.0585 36.9632 62.4909 36.9202 61.9233 36.8514C61.3213 36.7826 61.2869 35.871 61.9233 35.8796C62.4909 35.8882 63.0585 35.9226 63.6261 35.9914C64.2281 36.0688 64.2711 36.9804 63.6261 36.9718Z" fill="black"/>
<path d="M73.1033 148.307C70.2137 150.217 66.9457 151.498 63.5315 152.074C61.7513 152.375 59.9539 152.392 58.1479 152.435C56.4365 152.478 54.6907 152.59 53.074 153.175C51.5002 153.743 50.0468 154.723 49.2126 156.211C48.8944 156.778 49.7372 157.269 50.0812 156.718C51.8442 153.889 55.4734 153.571 58.4833 153.51C60.2463 153.476 62.0007 153.416 63.7465 153.132C65.3977 152.857 67.0231 152.418 68.5883 151.816C70.3599 151.128 72.0455 150.26 73.6279 149.193C74.1697 148.823 73.6537 147.938 73.1033 148.307Z" fill="black"/>
<path d="M74.9179 150.406C74.0149 151.223 73.1119 151.98 72.0455 152.582C70.9791 153.192 69.8353 153.657 68.6485 153.958C66.0771 154.611 63.3767 154.353 60.7967 154.99C59.4723 155.316 58.2167 155.875 57.2019 156.804C56.7117 157.251 57.4255 157.948 57.9243 157.527C59.8937 155.841 62.5855 155.695 65.0451 155.514C66.3695 155.42 67.7025 155.299 68.9925 154.964C70.1535 154.663 71.2715 154.207 72.3207 153.631C73.5161 152.969 74.6943 152.134 75.6231 151.128C76.0703 150.638 75.3995 149.967 74.9179 150.406Z" fill="black"/>
<path d="M104.76 53.544C104.382 59.1082 101.896 64.2424 98.9377 68.852C95.8847 73.6078 92.3157 77.8906 89.4863 82.7582C86.7171 87.5398 84.6445 92.8116 85.0487 98.4532C85.4701 104.413 88.4457 109.84 88.8413 115.885C89.0563 119.11 88.3597 122.533 87.3277 125.681C86.2527 128.94 84.7907 132.2 83.6383 135.433C83.3459 136.242 83.0449 137.016 82.8041 137.798C82.615 138.435 83.5093 138.77 83.7501 138.125C84.9627 134.883 86.2613 131.649 87.4825 128.373C88.6521 125.225 89.6583 121.837 89.8819 118.517C90.0969 115.344 89.4777 112.385 88.6865 109.41C87.9039 106.486 86.8977 103.682 86.3903 100.732C85.9001 97.9028 85.9517 95.1078 86.5967 92.33C87.2245 89.6296 88.2909 87.1184 89.6067 84.6932C92.2985 79.7138 95.8417 75.3794 98.9979 70.658C102.051 66.1 104.812 61.069 105.594 55.5392C105.689 54.8684 105.749 54.1718 105.749 53.501C105.74 52.8474 104.803 52.9076 104.76 53.544Z" fill="black"/>
<path d="M55.5679 20.4856C52.0247 16.4092 48.4729 12.3328 44.9297 8.265C44.8867 8.1618 44.8093 8.0758 44.7147 8.0242C43.8203 7.0008 42.9259 5.9688 42.0315 4.94539C40.7501 3.47479 39.4773 2.01279 38.1873 0.550794C38.0927 0.447594 37.9895 0.395994 37.8863 0.387394C37.5767 0.284193 37.1811 0.430394 37.1983 0.851794C37.4907 7.5512 37.7831 14.242 38.0841 20.9414L38.3421 26.669C38.3765 27.357 39.4429 27.357 39.4085 26.669C39.1935 21.8444 38.9699 17.0284 38.7549 12.2038C39.6235 11.361 40.3459 10.3634 40.9049 9.2798C41.3435 8.437 41.7735 7.4738 41.9885 6.5106C42.6077 7.2244 43.2355 7.9468 43.8547 8.6606C43.4763 9.7872 43.0549 10.8794 42.4959 11.9372C41.8681 13.0982 41.0941 14.1302 40.3029 15.1794C39.9417 15.6524 40.7157 16.22 41.1199 15.8072C42.0659 14.8268 42.8399 13.6228 43.4763 12.4274C43.9493 11.533 44.3707 10.5784 44.6717 9.598C45.6005 10.6644 46.5379 11.7394 47.4667 12.8058C47.1743 13.6658 46.8905 14.5086 46.4863 15.3342C46.0649 16.1942 45.5661 17.0198 44.9985 17.7938C43.8805 19.3246 42.4615 20.6404 40.9135 21.7154C40.3975 22.068 40.8619 22.8936 41.4123 22.5668C43.1667 21.509 44.6459 20.0986 45.8585 18.456C46.8819 17.0714 47.7935 15.4374 48.2923 13.7518C49.1953 14.7838 50.0897 15.8158 50.9927 16.8478C51.1475 17.0284 51.3023 17.2004 51.4571 17.381C50.7777 18.7226 50.0811 20.0212 49.1437 21.208C48.1289 22.4808 46.9679 23.6848 45.6607 24.6566C45.1361 25.0522 45.6263 25.9466 46.1853 25.5596C47.6301 24.5448 48.9287 23.3838 50.0123 21.982C50.8809 20.864 51.6893 19.6084 52.2397 18.2754C53.0997 19.2644 53.9683 20.262 54.8283 21.251C55.2669 21.7584 56.0151 21.0016 55.5679 20.4856ZM40.6555 7.1814C40.4577 7.7404 40.2255 8.2822 39.9417 8.7982C39.5805 9.4776 39.1505 10.114 38.6861 10.716C38.6259 9.3314 38.5571 7.9554 38.4969 6.5708C38.4281 5.126 38.3593 3.6812 38.2905 2.23639C39.2365 3.33719 40.1825 4.4294 41.1285 5.5216C40.9565 6.0634 40.8533 6.631 40.6555 7.1814Z" fill="black"/>
<path d="M53.4437 41.2546C51.8183 40.7386 49.9865 41.5556 49.4017 43.1896C49.2125 43.7228 50.0639 44.084 50.3219 43.5766C50.8809 42.4758 51.9387 41.8652 53.1857 42.2006C53.7963 42.364 54.0457 41.4438 53.4437 41.2546Z" fill="black"/>
<path d="M24.4875 42.5274C23.5501 39.8012 21.1249 37.634 18.2697 37.1266C18.1407 37.1008 18.0031 37.0836 17.8655 37.0664C17.1259 35.7506 15.8703 34.7014 14.6147 33.9102C13.3935 33.1362 12.0347 32.5772 10.6329 32.2332C7.41651 31.4592 3.85611 31.7946 0.992308 33.5146C0.424708 33.8586 0.923508 34.6928 1.50831 34.4004C5.79971 32.2848 11.2349 32.6374 15.0275 35.6474C15.5349 36.0516 16.0509 36.516 16.4551 37.0406C15.5091 37.1352 14.5975 37.4792 13.9697 38.236C13.1183 39.268 12.9549 40.9794 14.0815 41.891C15.2167 42.8026 16.9453 42.4414 17.7967 41.3234C18.4675 40.4376 18.5879 39.3024 18.3299 38.2446C20.6605 38.7434 22.6901 40.558 23.4899 42.794C23.7135 43.4218 24.7025 43.1638 24.4875 42.5274ZM15.9133 41.2632C14.7781 41.4782 14.1159 40.472 14.5287 39.4572C14.9415 38.4424 16.0595 38.1242 17.0829 38.1242C17.1517 38.2876 17.2033 38.4596 17.2463 38.6402C17.5043 39.698 17.1087 41.0396 15.9133 41.2632Z" fill="black"/>
<path d="M92.0663 8.04999C89.0649 7.69739 86.0635 9.03039 84.2575 11.4298C83.7071 12.1608 83.2685 12.9864 82.9761 13.8636C82.6149 13.8464 82.2537 13.8722 81.9011 13.9496C80.6025 14.2162 79.5275 15.1622 78.8051 16.2286C76.8701 19.0924 77.0163 23.1172 78.4697 26.1358C78.7535 26.7292 79.6049 26.2132 79.3383 25.6284C78.2977 23.315 78.0827 20.5716 78.9771 18.1808C79.5705 16.5898 80.9293 14.9644 82.6923 14.9214C82.6579 15.0762 82.6321 15.231 82.6063 15.3858C82.4085 16.7618 82.4601 18.5506 83.9049 19.2472C85.2465 19.8922 86.4849 18.843 86.6483 17.5014C86.7945 16.3146 86.1237 15.231 85.1691 14.586C84.8251 14.3538 84.4467 14.1732 84.0425 14.0528C84.2833 13.3992 84.6101 12.7714 85.0143 12.1952C86.5967 9.95059 89.3659 8.81539 92.0663 9.03899C92.7113 9.09059 92.6855 8.12739 92.0663 8.04999ZM85.4185 16.3662C85.7281 16.9854 85.6679 18.5764 84.6101 18.3786C83.3373 18.1378 83.5179 16.2458 83.6899 15.3256C83.7071 15.2396 83.7243 15.145 83.7415 15.059C84.4381 15.2826 85.0831 15.7126 85.4185 16.3662Z" fill="black"/>
<path d="M141.207 137.334C139.779 134.969 137.44 132.741 134.731 131.847C134.482 130.892 134.017 129.972 133.475 129.19C131.343 126.094 127.438 124.15 123.663 124.632C123.061 124.709 123.026 125.646 123.663 125.603C126.527 125.388 129.382 126.377 131.446 128.39C132.349 129.267 133.114 130.359 133.544 131.555C133.458 131.537 133.381 131.529 133.295 131.512C131.532 131.262 129.657 131.959 129.046 133.756C128.513 135.313 129.605 136.809 131.171 137.041C132.856 137.291 134.249 136.061 134.731 134.513C134.869 134.049 134.929 133.576 134.92 133.111C137.07 134.023 138.91 135.76 140.132 137.704C141.748 140.275 142.436 143.397 141.92 146.407C141.809 147.043 142.763 147.327 142.901 146.682C143.597 143.483 142.875 140.103 141.207 137.334ZM132.228 135.923C131.136 136.31 129.7 135.528 129.992 134.246C130.371 132.612 132.211 132.32 133.604 132.655C133.682 132.673 133.751 132.69 133.828 132.716C133.957 133.988 133.527 135.468 132.228 135.923Z" fill="black"/>
<path d="M55.697 136.388C54.7166 136.233 53.7104 136.173 52.7128 136.095C52.0592 136.044 52.0764 137.041 52.7128 137.102C53.6588 137.196 54.6134 137.334 55.568 137.36C56.1098 137.368 56.256 136.474 55.697 136.388Z" fill="black"/>
<path d="M58.965 130.686C58.3372 130.867 57.7352 131.219 57.1418 131.494C56.5397 131.778 55.8775 132.019 55.3099 132.372C55.1981 132.44 55.1379 132.535 55.1035 132.638C54.9917 132.784 54.9487 132.982 55.0777 133.171C55.3271 133.524 55.6023 133.868 55.8689 134.212C56.1355 134.556 56.3935 134.943 56.7032 135.253C57.1074 135.657 57.804 135.141 57.503 134.633C57.2794 134.264 56.9783 133.928 56.7117 133.593C56.5655 133.412 56.4279 133.232 56.2817 133.051C56.7031 132.87 57.1074 132.664 57.5202 132.475C58.1222 132.2 58.8016 131.967 59.352 131.606C59.825 131.305 59.5412 130.514 58.965 130.686Z" fill="black"/>
</svg>
